HIERARCHY
ROOT hip
{
  OFFSET 0 0 0
  CHANNELS 6 Xposition Yposition Zposition Zrotation Yrotation Xrotation
  JOINT abdomen
  {
    OFFSET 0 20.6881 -0.73152
    CHANNELS 3 Zrotation Xrotation Yrotation
    JOINT chest
    {
      OFFSET 0 11.7043 -0.48768
      CHANNELS 3 Zrotation Xrotation Yrotation
      JOINT neck
      {
        OFFSET 0 22.1894 -2.19456
        CHANNELS 3 Zrotation Xrotation Yrotation
        JOINT head
        {
          OFFSET -0.24384 7.07133 1.2192
          CHANNELS 3 Zrotation Xrotation Yrotation
          JOINT leftEye
          {
            OFFSET 4.14528 8.04674 8.04672
            CHANNELS 3 Zrotation Xrotation Yrotation
            End Site
            {
              OFFSET 1 0 0
            }
          }
          JOINT rightEye
          {
            OFFSET -3.6576 8.04674 8.04672
            CHANNELS 3 Zrotation Xrotation Yrotation
            End Site
            {
              OFFSET 1 0 0
            }
          }
        }
      }
      JOINT rCollar
      {
        OFFSET -2.68224 19.2634 -4.8768
        CHANNELS 3 Zrotation Xrotation Yrotation
        JOINT rShldr
        {
          OFFSET -8.77824 -1.95073 1.46304
          CHANNELS 3 Zrotation Xrotation Yrotation
          JOINT rForeArm
          {
            OFFSET -28.1742 -1.7115 0.48768
            CHANNELS 3 Zrotation Xrotation Yrotation
            JOINT rHand
            {
              OFFSET -22.5879 0.773209 7.07136
              CHANNELS 3 Zrotation Xrotation Yrotation
              JOINT rThumb1
              {
                OFFSET -1.2192 -0.487915 3.41376
                CHANNELS 3 Zrotation Xrotation Yrotation
                JOINT rThumb2
                {
                  OFFSET -3.37035 -0.52449 3.41376
                  CHANNELS 3 Zrotation Xrotation Yrotation
                  End Site
                  {
                    OFFSET -1.78271 -1.18214 1.43049
                  }
                }
              }
              JOINT rIndex1
              {
                OFFSET -7.75947 0.938293 5.60832
                CHANNELS 3 Zrotation Xrotation Yrotation
                JOINT rIndex2
                {
                  OFFSET -2.54057 -0.884171 1.56538
                  CHANNELS 3 Zrotation Xrotation Yrotation
                  End Site
                  {
                    OFFSET -1.62519 -0.234802 1.16502
                  }
                }
              }
              JOINT rMid1
              {
                OFFSET -8.24714 1.18213 3.41376
                CHANNELS 3 Zrotation Xrotation Yrotation
                JOINT rMid2
                {
                  OFFSET -3.10165 -0.590103 1.0647
                  CHANNELS 3 Zrotation Xrotation Yrotation
                  End Site
                  {
                    OFFSET -2.48547 -0.328903 0.83742
                  }
                }
              }
              JOINT rRing1
              {
                OFFSET -8.82822 0.546677 1.51678
                CHANNELS 3 Zrotation Xrotation Yrotation
                JOINT rRing2
                {
                  OFFSET -2.60934 -0.819778 -0.0198488
                  CHANNELS 3 Zrotation Xrotation Yrotation
                  End Site
                  {
                    OFFSET -2.33842 -0.294052 0.168128
                  }
                }
              }
              JOINT rPinky1
              {
                OFFSET -8.27202 -0.0477905 -0.4584
                CHANNELS 3 Zrotation Xrotation Yrotation
                JOINT rPinky2
                {
                  OFFSET -1.82734 -0.647385 -0.700984
                  CHANNELS 3 Zrotation Xrotation Yrotation
                  End Site
                  {
                    OFFSET -1.69225 -0.51767 -0.607171
                  }
                }
              }
            }
          }
        }
      }
      JOINT lCollar
      {
        OFFSET 2.68224 19.2634 -4.8768
        CHANNELS 3 Zrotation Xrotation Yrotation
        JOINT lShldr
        {
          OFFSET 8.77824 -1.95073 1.46304
          CHANNELS 3 Zrotation Xrotation Yrotation
          JOINT lForeArm
          {
            OFFSET 28.1742 -1.7115 0.48768
            CHANNELS 3 Zrotation Xrotation Yrotation
            JOINT lHand
            {
              OFFSET 22.5879 0.773209 7.07136
              CHANNELS 3 Zrotation Xrotation Yrotation
              JOINT lThumb1
              {
                OFFSET 1.2192 -0.487915 3.41376
                CHANNELS 3 Zrotation Xrotation Yrotation
                JOINT lThumb2
                {
                  OFFSET 3.37035 -0.52449 3.41376
                  CHANNELS 3 Zrotation Xrotation Yrotation
                  End Site
                  {
                    OFFSET 1.78271 -1.18214 1.43049
                  }
                }
              }
              JOINT lIndex1
              {
                OFFSET 7.75947 0.938293 5.60832
                CHANNELS 3 Zrotation Xrotation Yrotation
                JOINT lIndex2
                {
                  OFFSET 2.54057 -0.884171 1.56538
                  CHANNELS 3 Zrotation Xrotation Yrotation
                  End Site
                  {
                    OFFSET 1.62519 -0.234802 1.16502
                  }
                }
              }
              JOINT lMid1
              {
                OFFSET 8.24714 1.18213 3.41376
                CHANNELS 3 Zrotation Xrotation Yrotation
                JOINT lMid2
                {
                  OFFSET 3.10165 -0.590103 1.0647
                  CHANNELS 3 Zrotation Xrotation Yrotation
                  End Site
                  {
                    OFFSET 2.48547 -0.328903 0.83742
                  }
                }
              }
              JOINT lRing1
              {
                OFFSET 8.82822 0.546677 1.51678
                CHANNELS 3 Zrotation Xrotation Yrotation
                JOINT lRing2
                {
                  OFFSET 2.60934 -0.819778 -0.0198488
                  CHANNELS 3 Zrotation Xrotation Yrotation
                  End Site
                  {
                    OFFSET 2.33842 -0.294052 0.168128
                  }
                }
              }
              JOINT lPinky1
              {
                OFFSET 8.27202 -0.0477905 -0.4584
                CHANNELS 3 Zrotation Xrotation Yrotation
                JOINT lPinky2
                {
                  OFFSET 1.82734 -0.647385 -0.700984
                  CHANNELS 3 Zrotation Xrotation Yrotation
                  End Site
                  {
                    OFFSET 1.69225 -0.51767 -0.607171
                  }
                }
              }
            }
          }
        }
      }
    }
  }
  JOINT rButtock
  {
    OFFSET -8.77824 4.35084 1.2192
    CHANNELS 3 Zrotation Xrotation Yrotation
    JOINT rThigh
    {
      OFFSET 0 -1.70687 -2.19456
      CHANNELS 3 Zrotation Xrotation Yrotation
      JOINT rShin
      {
        OFFSET 0 -36.8199 0.73152
        CHANNELS 3 Zrotation Xrotation Yrotation
        JOINT rFoot
        {
          OFFSET 0.73152 -45.1104 -5.12064
          CHANNELS 3 Zrotation Xrotation Yrotation
          End Site
          {
            OFFSET -1.1221 -3.69964 12.103
          }
        }
      }
    }
  }
  JOINT lButtock
  {
    OFFSET 8.77824 4.35084 1.2192
    CHANNELS 3 Zrotation Xrotation Yrotation
    JOINT lThigh
    {
      OFFSET 0 -1.70687 -2.19456
      CHANNELS 3 Zrotation Xrotation Yrotation
      JOINT lShin
      {
        OFFSET 0 -36.8199 0.73152
        CHANNELS 3 Zrotation Xrotation Yrotation
        JOINT lFoot
        {
          OFFSET -0.73152 -45.1104 -5.12064
          CHANNELS 3 Zrotation Xrotation Yrotation
          End Site
          {
            OFFSET 1.1221 -3.69964 12.103
          }
        }
      }
    }
  }
}
MOTION
Frames:	4
Frame Time:	0.03333
12.2803 65.9204 -57.8624 -177.533048 -49.773134 177.75305 -3.908156 12.229211 0.66969 6.31998 -10.507578 -6.051888 6.728973 25.713709 75.501557 -37.264869 3.79523 -121.978943 0.001527 -0.0 -0.001609 0.001344 -0.0 -0.001364 -153.593314 -75.693566 -178.262802 -120.075423 -34.241499 -137.935166 -164.341938 -8.728343 -99.858576 -8.338462 55.955691 8.456783 114.538927 -50.245416 55.721496 -178.178803 -65.046198 136.413387 12.215539 -21.784959 -5.120804 12.77585 1.897287 -0.994 -161.154563 -8.160469 143.465097 -42.502776 58.271929 36.598336 -0.021559 -1.726621 -0.544552 2.465065 47.578892 9.880748 32.641293 83.588051 5.699293 -155.934896 36.720333 -147.145428 155.613436 -4.236192 -161.991829 -120.603337 -32.557667 -163.022693 -18.734858 9.650146 -106.41691 19.042764 -37.918728 8.65512 -71.830607 -48.264708 -25.791281 155.340581 -26.402761 -127.362987 -12.215395 -21.784921 5.122421 169.41996 -28.047656 -109.1397 151.476177 17.842186 -137.540338 -92.068688 -78.212127 -62.988083 145.102232 -1.521722 178.649193 6.819137 -61.115126 27.916701 -34.219662 84.165239 -4.329653 -14.441006 41.885471 -7.164131 0.0 -0.000705 0.002086 -59.456308 -48.044273 -180.0 -67.245746 -24.284717 119.114632 -26.815199 6.425778 0.160942 -0.0 0.000153 9.2e-05 26.30792 -30.746895 14.654012 -69.668368 66.546342 33.801591 -153.123459 -41.589968 -71.200091
12.3211 65.8355 -57.95400000000001 -177.908287 -49.737569 178.292255 -3.853702 7.475024 -180.0 -6.34665 5.73571 174.176241 -15.039453 29.51534 -74.469337 40.525317 -1.121251 30.58646 0.002759 -0.0 -0.003716 -0.001938 -0.0 0.00287 0.163673 -0.990034 -0.218221 41.997713 11.756013 31.688445 -14.999919 -48.147777 65.922279 -7.889549 54.824107 8.177205 -89.136491 38.426733 50.298812 16.679926 -25.158506 22.677445 -4.70602 7.224489 2.853371 -68.292911 48.438233 52.066535 -8.418052 20.880098 5.645761 -1.234655 12.65037 2.183105 -70.117866 -72.125901 -87.004391 -78.548431 83.139965 96.390513 -4.07815 -9.639733 -3.814551 19.636651 58.359598 9.577093 142.974277 39.431749 -147.390237 -158.249713 10.501354 -119.524077 33.807022 75.357102 -142.678484 20.823491 -63.397208 21.528275 -81.971721 -50.092317 -32.722327 75.904288 37.789279 -38.500176 50.385764 40.827563 -40.023763 -13.27797 -10.530633 3.644488 0.220028 0.638331 -0.123372 161.239613 1.342331 -142.606226 0.008235 3.475846 -1.091161 156.455325 -15.207956 -173.653681 138.441601 -6.229828 135.659682 23.834327 -39.197354 25.579068 179.998771 75.750179 -0.0 144.569369 8.411634 -101.618584 -74.170953 0.083015 176.076103 -3.300826 -1.744141 -77.530815 0.001267 0.000144 0.000317 25.800425 -31.214365 43.009464 70.158393 73.811706 -18.349482 50.490898 -49.360967 -5.637746
12.3178 65.7821 -57.9427 -177.750844 -49.724893 178.241398 -2.813834 7.660185 -159.759789 -3.053853 7.374527 153.87256 -12.23713 23.559595 -38.127382 27.324509 -21.731493 -1.769041 0.000848 0.0 0.004588 -0.00032 0.0 -0.000821 -155.417398 -2.951483 161.718365 106.871709 73.536989 -128.969179 -11.797266 32.241342 88.223322 -8.200304 55.540791 8.329884 -12.926896 12.051275 3.310416 -83.509477 15.978099 78.120191 10.747851 -19.047826 -4.724269 -164.400753 -20.988192 110.213699 0.539488 -1.590157 -0.295584 -34.370189 55.162291 28.969564 -0.008426 -0.831327 -0.260092 -155.759144 -7.868664 172.800762 -26.566133 -38.860506 -25.605803 -153.509967 36.04947 -147.881743 143.157411 39.097796 -147.585496 93.799321 22.926305 -67.437739 177.589576 -6.286824 75.043365 18.944529 -53.915472 15.652723 175.667476 -13.306405 -89.772821 -179.0748 -17.098619 -96.955279 43.64825 38.804165 -34.059298 82.643973 50.057023 -60.680431 0.570813 1.648315 -0.322971 176.445279 -42.246413 -142.912037 72.756371 -72.143276 89.772222 150.647084 -13.876199 -178.145646 9.259415 -19.386322 8.754955 153.051994 33.540096 147.827469 0.0 -0.000136 0.000832 -58.670048 -46.704154 -66.104536 -31.591441 79.13931 -121.881094 -7.356444 16.123141 161.890302 179.973085 75.748837 0.018415 -151.054023 38.034178 -18.348091 -70.062979 66.610109 34.054896 -173.118304 -3.712185 -66.172163
12.2997 65.72710000000001 -57.9523 -177.915173 -49.754803 178.546048 -1.623587 8.382537 -127.90204 2.634604 7.422137 121.645733 1.806727 21.029289 38.839448 -26.871834 -18.527279 -90.09064 -0.003284 0.0 -0.003373 -0.002347 -0.0 0.002277 -0.048395 0.292471 0.064774 40.754339 11.55206 32.418028 -117.176422 27.965736 25.543917 43.879047 -51.92849 40.654069 83.254606 -50.257949 33.615215 -14.605291 -42.701862 -30.569684 -0.32863 0.529574 0.186436 9.275477 3.254256 -0.021437 0.540711 -1.590047 -0.294527 80.537653 -78.003521 52.079085 -145.118083 0.226238 -179.200315 11.907355 29.602464 -5.63787 0.098129 0.258822 0.088815 -146.915694 10.288476 -143.366837 29.827863 58.184287 -32.233206 87.027199 10.939888 -126.555957 169.616769 -36.269603 70.724186 20.252253 -61.571829 20.201495 78.030536 38.68932 -42.412744 130.535784 -22.437805 -81.676257 -132.746589 -75.212711 -79.477884 -130.766473 -67.533969 -69.125056 0.057411 0.167901 -0.032235 42.06853 58.558747 -36.10177 145.111535 -0.66841 178.918041 -12.121479 35.299853 4.999963 145.171321 12.068169 141.82265 -46.44234 79.975785 10.122709 0.0 0.000573 -0.000291 -59.615163 -47.95229 -138.172685 -69.916584 18.584942 137.824901 84.417522 -67.920891 -15.447987 179.996627 75.750698 0.002976 -152.99014 37.385559 60.81872 95.672658 29.686106 69.034607 -159.940837 -29.909932 149.812936
